<?xml version="1.0" encoding="UTF-8"?>
<svg width="334px" height="229px" viewBox="0 0 334 229" version="1.1" xmlns="http://www.w3.org/2000/svg" xmlns:xlink="http://www.w3.org/1999/xlink">
    <!-- Generator: Sketch 56.3 (81716) - https://sketch.com -->
    <title>medlemskort</title>
    <desc>Created with Sketch.</desc>
    <defs>
        <rect id="path-1" x="53" y="-52" width="208" height="313" rx="10.45"></rect>
        <filter x="-7.7%" y="-4.5%" width="115.4%" height="110.2%" filterUnits="objectBoundingBox" id="filter-2">
            <feOffset dx="0" dy="2" in="SourceAlpha" result="shadowOffsetOuter1"></feOffset>
            <feGaussianBlur stdDeviation="5" in="shadowOffsetOuter1" result="shadowBlurOuter1"></feGaussianBlur>
            <feColorMatrix values="0 0 0 0 0   0 0 0 0 0   0 0 0 0 0  0 0 0 0.2 0" type="matrix" in="shadowBlurOuter1"></feColorMatrix>
        </filter>
        <polygon id="path-3" points="0 0.0575541667 0 22.9582773 149.291566 22.9582773 149.291566 0.0575541667 0 0.0575541667"></polygon>
    </defs>
    <g id="Page-1" stroke="none" stroke-width="1" fill="none" fill-rule="evenodd">
        <g id="om-appen_faq" transform="translate(-23.000000, -597.000000)">
            <g id="medlemskort" transform="translate(31.000000, 607.000000)">
                <g id="Card_v1">
                    <g id="card_backgrund_shadow" transform="translate(157.000000, 104.500000) rotate(-90.000000) translate(-157.000000, -104.500000) ">
                        <use fill="black" fill-opacity="1" filter="url(#filter-2)" xlink:href="#path-1"></use>
                        <use fill="#F6F6F3" fill-rule="evenodd" xlink:href="#path-1"></use>
                    </g>
                    <rect id="card_backgrund" fill="#F6F6F3" transform="translate(157.000000, 104.500000) rotate(-90.000000) translate(-157.000000, -104.500000) " x="53" y="-52" width="208" height="313" rx="10.45"></rect>
                    <path d="M287.23479,229.361554 L209.640891,229.361554 C203.865485,229.361554 199.183594,224.69242 199.183594,218.921512 L199.183594,94.7617188 C251.578773,99.0019943 292.775259,142.791394 292.775259,196.185597 C292.775259,207.801607 290.825478,218.963033 287.234787,229.361554 L287.23479,229.361554 Z" id="circle" fill="#AB2026" transform="translate(245.979426, 162.061636) rotate(-90.000000) translate(-245.979426, -162.061636) "></path>
                </g>
                <g id="Group-2" transform="translate(24.125000, 15.900000)">
                    <text id="Medlemsnr.-99999999" font-family="DINPro-Bold, DIN Pro" font-size="22" font-weight="bold" fill="#0F0A33">
                        <tspan x="1" y="67.65">Medlemsnr. 99999999</tspan>
                    </text>
                    <text id="Jytte-Povlsen" font-family="DINOffc, DIN Offc" font-size="17.1" font-weight="normal" fill="#000000">
                        <tspan x="0.875" y="96.1">Jytte Povlsen</tspan>
                    </text>
                    <text id="Greve" font-family="DINPro-Bold, DIN Pro" font-size="18" font-weight="bold" fill="#0F0A33">
                        <tspan x="1" y="126.75">Greve</tspan>
                    </text>
                    <g id="logo" transform="translate(57.430000, 0.000000)">
                        <g id="Group-3" transform="translate(63.343182, 0.130625)" fill="#AB2026">
                            <path d="M19.333967,13.0597094 C18.1751593,17.6739385 12.48349,19.6149073 8.95509829,16.3378031 C6.87830479,14.4085115 7.07127597,10.2053552 10.1484211,9.80912604 C10.2200008,9.80002187 10.2921689,9.79467812 10.3641409,9.79329271 C10.8667681,9.78418854 11.3570404,9.97794896 11.6033532,10.4701677 C11.6586559,10.5815948 11.7033687,10.7628865 11.7033687,10.7628865 C11.7033687,10.7628865 11.7302357,10.8147406 11.7620053,10.809001 C11.7810279,10.8052406 11.8018154,10.7808969 11.8196613,10.7126156 C12.1589298,9.40339687 10.8089159,8.62004271 9.33849124,8.90405312 C8.1949801,9.12532396 6.97851645,9.99239687 6.42784259,11.7601885 C5.6502707,14.2537406 6.82790479,16.6902927 8.7993878,18.0960948 C9.52204919,18.6116677 10.3470794,18.9390219 11.2001533,19.1317927 C11.2589859,19.1450531 11.3289968,19.1602927 11.4052832,19.1769177 C11.6368878,19.2263969 11.9551726,19.292699 12.1242185,19.328126 C12.1597142,19.335449 12.240315,19.3526677 12.2409033,19.3528656 C12.3246418,19.3774073 12.3840628,19.4132302 12.3840628,19.499126 C12.3840628,19.544251 12.3442527,19.579876 12.294441,19.6071885 C12.2789484,19.6212406 12.1856006,19.6529073 12.1595181,19.6600323 C12.1289251,19.6689385 11.7684769,19.7524594 11.7588676,19.7544385 C11.6672847,19.7728448 11.4303851,19.8116365 11.4033221,19.8155948 C11.3333112,19.8254906 11.2633003,19.8347927 11.1934855,19.8423135 C11.131319,19.8492406 10.9467805,19.8644802 10.9165797,19.8664594 C7.89277625,20.0695219 4.96526223,18.1202406 3.82724215,15.5696885 C2.89082204,13.4703865 2.82394889,11.5410948 3.31814338,9.92510521 C4.47695101,5.31087604 10.1686203,3.36990729 13.6970121,6.64701146 C15.7740017,8.57630312 15.5808344,12.7792615 12.5038854,13.1756885 C12.4321095,13.1847927 12.3599414,13.1903344 12.2881656,13.1915219 C11.7853423,13.200626 11.29507,13.0068656 11.0487572,12.514449 C10.9936506,12.4032198 10.9487416,12.2219281 10.9487416,12.2219281 L10.9487416,12.2219281 C10.9401128,12.1900635 10.9275618,12.174824 10.8977533,12.174824 C10.8961844,12.174824 10.8797113,12.1797719 10.8744163,12.184324 C10.8706903,12.1872927 10.8614731,12.1995635 10.8599043,12.2019385 C10.8461766,12.2231156 10.8371556,12.2516156 10.832449,12.2725948 L10.832449,12.2727927 C10.4937689,13.5816156 11.8435866,14.3647719 13.3136191,14.0807615 C14.4573264,13.8594906 15.6735939,12.9924177 16.2242678,11.224626 C17.0018397,8.73107396 15.8244017,6.29452187 13.8529187,4.88871979 C13.1300612,4.37314687 12.3050309,4.04579271 11.4521532,3.85302187 C11.3933205,3.83976146 11.3233097,3.82452187 11.2468272,3.80809479 C11.0152225,3.75841771 10.6971339,3.69211562 10.5278919,3.65668854 C10.4923961,3.64936562 10.4119915,3.63214687 10.4114032,3.63194896 C10.3276646,3.60740729 10.2680475,3.57158437 10.2680475,3.48568854 C10.2680475,3.44056354 10.3078576,3.40493854 10.3578654,3.37762604 C10.3731619,3.36357396 10.4665098,3.33170937 10.4927884,3.32458437 C10.5231852,3.31587604 10.8836334,3.23235521 10.8932428,3.23037604 C10.9848257,3.21196979 11.0762124,3.19514687 11.1677953,3.18109479 C11.1948583,3.17674062 11.2217252,3.17317812 11.2487883,3.16921979 C11.3187991,3.15932396 11.38881,3.15002187 11.4586248,3.14250104 C11.5207913,3.13557396 11.5829579,3.13042812 11.6451244,3.12528229 C11.6753252,3.12290729 11.7055259,3.12013646 11.7355306,3.11835521 C14.7593341,2.91529271 17.6870442,4.86457396 18.8248682,7.41492812 C19.7614844,9.51442812 19.8281615,11.4437198 19.333967,13.0597094 M11.3403711,0.067271875 C5.08998751,0.067271875 0.0231212421,5.18084479 0.0231212421,11.4886469 C0.0231212421,17.7966469 5.08998751,22.9102198 11.3403711,22.9102198 C17.5907548,22.9102198 22.657621,17.7966469 22.657621,11.4886469 C22.657621,5.18084479 17.5907548,0.067271875 11.3403711,0.067271875" id="Fill-1"></path>
                        </g>
                        <g id="tekst" transform="translate(0.000000, 3.099375)">
                            <mask id="mask-4" fill="white">
                                <use xlink:href="#path-3"></use>
                            </mask>
                            <g id="Clip-5"></g>
                            <path d="M149.003286,6.51221042 C148.927196,6.30380417 148.834436,6.10806458 148.727557,5.9230125 L148.721281,5.92835625 C147.739364,4.24111667 145.684338,3.91772083 144.293142,3.9113875 C143.707757,3.91356458 143.333777,3.94424167 142.929204,4.0052 C142.07613,4.11999167 141.42799,4.344825 140.964193,4.68227292 C140.451368,5.00250208 140.047776,5.41891875 139.756554,5.9230125 L139.758711,5.92499167 C139.653989,6.10727292 139.562406,6.30024167 139.487493,6.50548125 C139.296286,7.02718958 139.199212,7.62410625 139.199212,8.27960625 L139.199212,8.39914792 L139.199212,12.614575 L139.199212,16.8302 L141.473488,16.8302 L141.473488,9.59258542 L141.473488,8.40172083 C141.473488,6.81898125 142.103978,6.14309583 144.021727,6.06491875 C144.085266,6.06353333 144.191557,6.06293958 144.179202,6.06293958 C145.365857,6.07441875 146.105973,6.28361667 146.532313,6.74753333 C146.543884,6.76059583 146.556631,6.77286667 146.567809,6.786325 C146.587224,6.80908542 146.603893,6.83402292 146.621935,6.85797083 C146.833341,7.14534583 146.954536,7.51703333 146.997484,7.98411667 C147.009446,8.11850208 147.017291,8.25803333 147.017291,8.40845 L147.017291,9.5995125 L147.017291,16.8369292 L149.291566,16.8369292 L149.291566,12.6213042 L149.291566,8.40587708 L149.291566,8.28633542 C149.291566,7.63083542 149.194492,7.03391875 149.003286,6.51221042 L149.003286,6.51221042 Z M12.3849845,2.48579375 L11.7217442,2.48500208 C10.6300058,2.48500208 9.6284775,3.20561667 8.73971186,4.98528333 L7.53952524,7.38818958 L12.3849845,7.38818958 L12.3849845,2.48579375 Z M17.4949948,14.5312 L21.0571173,14.5312 L21.0571173,16.8177312 L16.2844144,16.8173354 C15.2507242,16.8177312 14.0776007,16.3172 13.3757268,15.5864917 C12.7471977,14.9519708 12.3849845,13.9829708 12.3849845,12.93045 L12.3849845,9.50233542 L6.48210593,9.50352292 L2.83683325,16.8177312 L-7.84435695e-05,16.8177312 L6.51681721,4.12474167 C8.00332285,1.22922083 9.24998728,0.269325 11.8162687,0.222220833 L20.6431313,0.222220833 L20.6431313,2.45966875 L14.9667585,2.45966875 L14.9667585,4.12612708 L14.9667585,7.3967 L20.6431313,7.3967 L20.6431313,9.58486667 L14.9667585,9.58486667 L14.9667585,12.5270958 C15.0371616,13.9093458 15.6696129,14.4803354 17.4949948,14.5312 L17.4949948,14.5312 Z M37.1396179,8.40112708 C37.1396179,7.85527292 37.0572521,7.41866875 36.880558,7.07548125 C36.8203526,6.95890833 36.7487728,6.85361667 36.6658187,6.75861667 C35.6478173,5.73123125 32.7889414,5.87986667 32.0629462,6.76277292 C31.7397587,7.13742917 31.6240544,7.67358542 31.5948342,8.40112708 C31.5626723,9.20031458 31.52247,10.6736063 31.5948342,12.4922625 C31.6601384,14.1357625 32.3512263,14.8373771 34.367226,14.8373771 C36.3834219,14.8373771 37.1396179,14.1612938 37.1396179,12.4922625 L37.1396179,8.40112708 Z M36.880558,0.222220833 L39.4140892,0.222220833 L39.4140892,12.614575 C39.4140892,15.9579813 36.8909518,16.9841792 34.5105817,16.9841792 C32.140017,16.9841792 31.1180934,16.3783562 30.4050413,15.6587313 C29.7765122,15.0244083 29.320559,13.9716896 29.320559,12.9191688 L29.320559,8.27921042 C29.320559,4.47267917 32.4751671,3.9042625 34.3556556,3.9042625 C35.2885458,3.9042625 36.1255386,3.9945125 36.880558,4.29673125 L36.880558,0.222220833 Z M47.2145177,3.91455417 C46.7452291,3.91455417 46.3041801,3.94681458 45.8701911,4.01212708 C44.9871126,4.131075 44.3164201,4.36362708 43.8363454,4.71295 C43.1111346,5.16578333 42.5943876,5.803075 42.3010087,6.6070125 C42.1029386,7.14712708 42.0025309,7.764825 42.0025309,8.44328333 L42.0025309,16.8165437 L44.3566224,16.8165437 L44.3566224,8.56975208 C44.3566224,6.82274167 45.1569429,6.14171042 47.2105956,6.14072083 C47.2105956,6.14072083 47.7867636,6.12468958 48.2619355,6.1818875 L48.2619355,3.9375125 C47.890113,3.90861667 47.2145177,3.91455417 47.2145177,3.91455417 L47.2145177,3.91455417 Z M115.905787,8.48821042 C115.905787,10.3911792 116.65355,11.06845 118.685435,11.06845 C120.348634,11.06845 121.440177,10.3911792 121.440177,8.51314792 C121.440177,6.51042917 120.422763,5.88342917 118.710144,5.88342917 C116.718462,5.88342917 115.905787,6.77187708 115.905787,8.48821042 L115.905787,8.48821042 Z M125.244886,17.9662417 C125.325094,20.6203042 122.709786,22.8306375 118.740345,22.9525542 C115.51553,23.0517104 113.61092,21.8614396 113.53836,19.4581375 C113.530908,19.2081688 113.516395,18.732575 113.516395,18.732575 L115.50945,18.7391063 C115.503763,18.813325 115.515726,18.9811583 115.518079,19.0569604 C115.558086,20.3839917 115.903826,21.0008979 118.924491,21.0008979 C121.232693,21.0008979 122.666446,19.7492729 122.625851,18.3973042 C122.593297,17.3208354 121.461749,16.4377313 120.071532,16.6182313 L117.948849,16.8741375 C117.948849,16.8741375 116.140725,17.1890229 115.004078,16.6681063 C114.248666,16.3154188 113.668576,15.4566583 113.668576,14.3968146 C113.668576,13.4951063 114.292399,12.6213042 115.160965,12.2454604 C113.944501,11.5689813 113.324013,10.291825 113.324013,8.73877292 C113.324013,6.1082625 115.309812,3.9042625 118.834085,3.9042625 C119.578907,3.9042625 120.537487,4.13206458 120.954219,4.20648125 C121.124441,4.2462625 121.515875,4.401825 121.677076,4.4837625 C121.971828,4.21162708 122.297173,4.0728875 122.850396,3.99847083 C123.269873,3.93533542 123.696018,3.9042625 124.149225,3.9042625 L124.320624,3.90624167 L124.40907,3.9042625 C124.67617,3.9042625 124.925228,3.91198125 125.161147,3.92642917 L125.161147,6.09480417 C124.42417,5.99267917 123.793484,6.0322625 123.366947,6.097575 C123.77956,6.81304375 123.996652,7.62054375 123.996652,8.33779375 C123.996652,11.0431167 122.13499,12.9468771 118.660725,12.9468771 C118.188887,12.9468771 117.61821,12.8968042 117.245799,12.8215958 C116.749643,13.0218875 116.53863,13.3977313 116.525883,13.7482417 C116.490191,14.7356479 117.029099,14.9112 118.588949,14.6738979 L120.695355,14.4973563 C123.374595,14.4150229 125.174679,15.6375542 125.244886,17.9662417 L125.244886,17.9662417 Z M24.0493472,16.8167417 L26.6558309,16.8167417 L26.6558309,0.222220833 L24.0493472,0.222220833 L24.0493472,16.8167417 Z M108.849591,11.2424188 L105.750286,11.2424188 C104.541274,11.2424188 103.305592,11.4605229 103.305592,13.0775021 C103.305592,13.3276688 103.334616,13.5519083 103.392272,13.7446792 C103.481894,14.044325 103.678787,14.8395542 105.90933,14.8395542 C108.139677,14.8395542 108.849591,14.1798979 108.849591,12.4920646 L108.849591,11.2424188 Z M111.123867,8.27921042 L111.123867,12.6141792 C111.123867,13.2696792 111.026793,13.8665958 110.835587,14.3883042 C110.552209,15.1651271 110.052916,15.7808458 109.352219,16.2182417 C108.888421,16.5556896 108.240281,16.7805229 107.387403,16.8953146 C106.967926,16.95845 106.583749,16.9895229 105.960515,16.9895229 C103.858423,16.9895229 102.872388,16.6443563 102.021275,15.7580854 C101.39255,15.1237625 101.030336,14.1547625 101.030336,13.1022417 C101.030336,10.6524292 102.741387,9.19002292 105.607126,9.19002292 L108.849591,9.19002292 L108.849591,8.40112708 C108.849591,6.71289792 108.07555,6.05502292 106.08877,6.05502292 C104.649331,6.05502292 103.862345,6.29371042 103.08144,7.13723125 L101.471974,5.81574167 C102.915139,4.15442917 104.237502,3.9042625 106.08877,3.9042625 C107.969258,3.9042625 111.123867,4.47267917 111.123867,8.27921042 L111.123867,8.27921042 Z M52.1794074,9.65136667 L55.2787128,9.65136667 C56.4877243,9.65136667 57.7234066,9.4332625 57.7234066,7.81628333 C57.7234066,7.56611667 57.6943825,7.34187708 57.6365304,7.14910625 C57.5471047,6.84946042 57.3502114,6.05423125 55.1196685,6.05423125 C52.8891256,6.05423125 52.1794074,6.7138875 52.1794074,8.40172083 L52.1794074,9.65136667 Z M52.1794074,11.7037625 L52.1794074,12.4926583 C52.1794074,14.1808875 52.9532532,14.8387625 54.9402288,14.8387625 C56.3794722,14.8387625 57.1666534,14.600075 57.9475591,13.7565542 L59.5570251,15.0780438 C58.1136634,16.7393563 56.7913009,16.9895229 54.9402288,16.9895229 C53.0595442,16.9895229 49.9049361,16.4213042 49.9049361,12.614575 L49.9049361,8.27960625 C49.9049361,7.62410625 50.0022061,7.02718958 50.1934123,6.50548125 C50.4767897,5.72865833 50.976083,5.11293958 51.6765841,4.67554375 C52.1405778,4.33809583 52.7885217,4.1132625 53.6415955,3.99847083 C54.0610725,3.93533542 54.4452499,3.9042625 55.068484,3.9042625 C57.1703795,3.9042625 58.1566113,4.24942917 59.007724,5.1357 C59.6362531,5.77002292 59.9984663,6.73902292 59.9984663,7.79154375 C59.9984663,10.2413563 58.287612,11.7037625 55.4218723,11.7037625 L52.1794074,11.7037625 Z M129.279631,9.65136667 L132.378936,9.65136667 C133.587948,9.65136667 134.823826,9.4332625 134.823826,7.81628333 C134.823826,7.56611667 134.794606,7.34187708 134.73695,7.14910625 C134.647328,6.84946042 134.450435,6.05423125 132.220088,6.05423125 C129.989545,6.05423125 129.279631,6.7138875 129.279631,8.40172083 L129.279631,9.65136667 Z M129.279631,11.7037625 L129.279631,12.4926583 C129.279631,14.1808875 130.053673,14.8387625 132.040452,14.8387625 C133.479892,14.8387625 134.267073,14.600075 135.047979,13.7565542 L136.657249,15.0780438 C135.214083,16.7393563 133.89172,16.9895229 132.040452,16.9895229 C130.159964,16.9895229 127.005356,16.4213042 127.005356,12.614575 L127.005356,8.27960625 C127.005356,7.62410625 127.10243,7.02718958 127.293636,6.50548125 C127.577209,5.72865833 128.076306,5.11293958 128.777004,4.67554375 C129.240801,4.33809583 129.888941,4.1132625 130.742015,3.99847083 C131.161296,3.93533542 131.545473,3.9042625 132.168707,3.9042625 C134.270799,3.9042625 135.256835,4.24942917 136.108144,5.1357 C136.736673,5.77002292 137.098886,6.73902292 137.098886,7.79154375 C137.098886,10.2413563 135.388032,11.7037625 132.522292,11.7037625 L129.279631,11.7037625 Z M99.3283071,11.4423146 C99.4642106,14.4876583 96.6969175,17.1444917 92.7749352,17.1444917 C91.5812201,17.1444917 90.4149604,16.8205021 89.4648126,16.5746896 L89.5089371,14.1189396 C90.4347674,14.4633146 91.8249835,14.8334188 93.0186986,14.8334188 C94.8213318,14.8334188 96.7047619,13.6799604 96.492572,11.7393875 C96.0870188,8.030825 89.1826119,10.3387313 88.9437512,4.98468958 C88.8164765,2.13548125 91.312747,0.0575541667 95.1382438,0.0575541667 C96.1123168,0.0575541667 97.1109035,0.180460417 98.1098823,0.352252083 L97.9637812,2.73695 C97.0138295,2.44225208 95.9664118,2.27006458 94.9913582,2.27006458 C92.9453538,2.27006458 91.6875112,3.20403333 91.6875112,4.74540833 C91.6875112,8.06447083 99.0968985,6.25986667 99.3283071,11.4423146 L99.3283071,11.4423146 Z" id="Fill-4" fill="#000000" mask="url(#mask-4)"></path>
                        </g>
                    </g>
                    <path d="M1,36.575 L263.295,36.575" id="Line" stroke="#364248" stroke-width="1.045" stroke-linecap="square"></path>
                </g>
            </g>
        </g>
    </g>
</svg>